<?xml version="1.0" encoding="UTF-8"?>
<svg width="60px" height="30px" viewBox="0 0 60 30" version="1.1" xmlns="http://www.w3.org/2000/svg" xmlns:xlink="http://www.w3.org/1999/xlink">
    <!-- Generator: Sketch 46.2 (44496) - http://www.bohemiancoding.com/sketch -->
    <title>back</title>
    <desc>Created with Sketch.</desc>
    <defs></defs>
    <g id="Page-1" stroke="none" stroke-width="1" fill="none" fill-rule="evenodd">
        <g id="back">
            <g id="Group" transform="translate(9.000000, 9.000000)">
                <path d="M4.13090569,5 L12,5 C12.5522847,5 13,5.44771525 13,6 C13,6.55228475 12.5522847,7 12,7 L4.13090569,7 L7.68396571,10.2928932 C8.10534476,10.6834175 8.10534476,11.3165825 7.68396571,11.7071068 C7.26258665,12.0976311 6.57939621,12.0976311 6.15801715,11.7071068 L3.6739404e-16,6 L6.15801715,0.292893219 C6.57939621,-0.0976310729 7.26258665,-0.0976310729 7.68396571,0.292893219 C8.10534476,0.683417511 8.10534476,1.31658249 7.68396571,1.70710678 L4.13090569,5 Z" id="Combined-Shape" fill="#A5A1C7"></path>
                <path d="M34.1309057,5 L42,5 C42.5522847,5 43,5.44771525 43,6 C43,6.55228475 42.5522847,7 42,7 L34.1309057,7 L37.6839657,10.2928932 C38.1053448,10.6834175 38.1053448,11.3165825 37.6839657,11.7071068 C37.2625866,12.0976311 36.5793962,12.0976311 36.1580171,11.7071068 L30,6 L36.1580171,0.292893219 C36.5793962,-0.0976310729 37.2625866,-0.0976310729 37.6839657,0.292893219 C38.1053448,0.683417511 38.1053448,1.31658249 37.6839657,1.70710678 L34.1309057,5 Z" id="Combined-Shape" fill="#412CFF"></path>
            </g>
        </g>
    </g>
</svg>